<?xml version="1.0" encoding="UTF-8"?>
<svg width="437.5" height="437.5" xmlns="http://www.w3.org/2000/svg" xmlns:svg="http://www.w3.org/2000/svg">
 <g>
  <title>Layer 1</title>
  <path transform="rotate(90 210.388427734375,131.96853637695315) " d="m237.820072,35.625377c0,-12.5584 -7.5289,-22.6686 -16.881,-22.6686l-21.1013,0c-9.3521,0 -16.881,10.1102 -16.881,22.6686l0,192.686c0,12.5585 7.5289,22.6689 16.881,22.6689l21.1013,0c9.3521,0 16.881,-10.1104 16.881,-22.6689l0,-192.686z" id="path622" stroke-width="5.913555" stroke="#000000" fill-rule="evenodd" fill="#ffff00"/>
  <path id="svg_2" transform="rotate(90 210.388427734375,211.96850585937503) " d="m237.82008,115.625376c0,-12.5584 -7.5289,-22.6686 -16.881,-22.6686l-21.1013,0c-9.3521,0 -16.881,10.1102 -16.881,22.6686l0,192.686c0,12.5585 7.5289,22.6689 16.881,22.6689l21.1013,0c9.3521,0 16.881,-10.1104 16.881,-22.6689l0,-192.686z" stroke-width="5.913555" stroke="#000000" fill-rule="evenodd" fill="#ffff00"/>
  <path id="svg_3" transform="rotate(90 210.38842773437497,291.9685363769532) " d="m237.820083,195.625377c0,-12.5584 -7.5289,-22.6686 -16.881,-22.6686l-21.1013,0c-9.3521,0 -16.881,10.1102 -16.881,22.6686l0,192.686c0,12.5585 7.5289,22.6689 16.881,22.6689l21.1013,0c9.3521,0 16.881,-10.1104 16.881,-22.6689l0,-192.686z" stroke-width="5.913555" stroke="#000000" fill-rule="evenodd" fill="#ffff00"/>
 </g>
</svg>